<mxfile host="app.diagrams.net" modified="2021-06-30T23:55:22.441Z" agent="5.0 (Windows NT 10.0; Win64; x64) AppleWebKit/537.36 (KHTML, like Gecko) Chrome/91.0.4472.114 Safari/537.36" etag="SZNRzEzBV6Ez4OmgGHb3" version="14.8.2" type="github">
  <diagram id="kgpKYQtTHZ0yAKxKKP6v" name="Page-1">
    <mxGraphModel dx="1662" dy="762" grid="1" gridSize="10" guides="1" tooltips="1" connect="1" arrows="1" fold="1" page="1" pageScale="1" pageWidth="850" pageHeight="1100" math="0" shadow="0">
      <root>
        <mxCell id="0" />
        <mxCell id="1" parent="0" />
        <mxCell id="3nuBFxr9cyL0pnOWT2aG-1" value="Api Docs App" style="shape=umlLifeline;perimeter=lifelinePerimeter;container=1;collapsible=0;recursiveResize=0;rounded=0;shadow=0;strokeWidth=1;" parent="1" vertex="1">
          <mxGeometry x="390" y="140" width="100" height="300" as="geometry" />
        </mxCell>
        <mxCell id="3nuBFxr9cyL0pnOWT2aG-5" value="ReCharge APIÂ &#xa;Server" style="shape=umlLifeline;perimeter=lifelinePerimeter;container=1;collapsible=0;recursiveResize=0;rounded=0;shadow=0;strokeWidth=1;" parent="1" vertex="1">
          <mxGeometry x="700" y="140" width="100" height="150" as="geometry" />
        </mxCell>
        <mxCell id="cPcHKRKm8nas2TuGx9sg-1" value="&lt;font style=&quot;font-size: 18px&quot;&gt;Proposed Authentication Flow&lt;/font&gt;" style="text;html=1;strokeColor=none;fillColor=none;align=center;verticalAlign=middle;whiteSpace=wrap;rounded=0;" parent="1" vertex="1">
          <mxGeometry x="240" y="40" width="370" height="40" as="geometry" />
        </mxCell>
        <mxCell id="cPcHKRKm8nas2TuGx9sg-3" value="Browser" style="shape=umlLifeline;perimeter=lifelinePerimeter;container=1;collapsible=0;recursiveResize=0;rounded=0;shadow=0;strokeWidth=1;" parent="1" vertex="1">
          <mxGeometry x="100" y="140" width="100" height="300" as="geometry" />
        </mxCell>
        <mxCell id="JtZRYGH_A45XdKd5bMPg-1" value="" style="endArrow=classic;html=1;entryX=0.51;entryY=0.867;entryDx=0;entryDy=0;entryPerimeter=0;" parent="cPcHKRKm8nas2TuGx9sg-3" target="3nuBFxr9cyL0pnOWT2aG-1" edge="1">
          <mxGeometry relative="1" as="geometry">
            <mxPoint x="50" y="260" as="sourcePoint" />
            <mxPoint x="210" y="260" as="targetPoint" />
          </mxGeometry>
        </mxCell>
        <mxCell id="JtZRYGH_A45XdKd5bMPg-2" value="get /&amp;nbsp;" style="edgeLabel;resizable=0;html=1;align=center;verticalAlign=middle;" parent="JtZRYGH_A45XdKd5bMPg-1" connectable="0" vertex="1">
          <mxGeometry relative="1" as="geometry" />
        </mxCell>
        <mxCell id="JtZRYGH_A45XdKd5bMPg-3" value="session cookie" style="edgeLabel;resizable=0;html=1;align=left;verticalAlign=bottom;" parent="JtZRYGH_A45XdKd5bMPg-1" connectable="0" vertex="1">
          <mxGeometry x="-1" relative="1" as="geometry">
            <mxPoint x="116" y="30" as="offset" />
          </mxGeometry>
        </mxCell>
        <mxCell id="cPcHKRKm8nas2TuGx9sg-7" value="" style="endArrow=classic;html=1;entryX=0.5;entryY=0.277;entryDx=0;entryDy=0;entryPerimeter=0;" parent="1" target="3nuBFxr9cyL0pnOWT2aG-1" edge="1">
          <mxGeometry relative="1" as="geometry">
            <mxPoint x="150" y="220" as="sourcePoint" />
            <mxPoint x="310" y="220" as="targetPoint" />
          </mxGeometry>
        </mxCell>
        <mxCell id="cPcHKRKm8nas2TuGx9sg-8" value="post /api/login" style="edgeLabel;resizable=0;html=1;align=center;verticalAlign=middle;" parent="cPcHKRKm8nas2TuGx9sg-7" connectable="0" vertex="1">
          <mxGeometry relative="1" as="geometry">
            <mxPoint x="-1" as="offset" />
          </mxGeometry>
        </mxCell>
        <mxCell id="cPcHKRKm8nas2TuGx9sg-9" value="payload: token" style="edgeLabel;resizable=0;html=1;align=left;verticalAlign=bottom;" parent="cPcHKRKm8nas2TuGx9sg-7" connectable="0" vertex="1">
          <mxGeometry x="-1" relative="1" as="geometry">
            <mxPoint x="110" y="30" as="offset" />
          </mxGeometry>
        </mxCell>
        <mxCell id="cPcHKRKm8nas2TuGx9sg-10" value="" style="endArrow=classic;html=1;exitX=0.5;exitY=0.33;exitDx=0;exitDy=0;exitPerimeter=0;entryX=0.51;entryY=0.673;entryDx=0;entryDy=0;entryPerimeter=0;" parent="1" edge="1">
          <mxGeometry relative="1" as="geometry">
            <mxPoint x="440" y="230" as="sourcePoint" />
            <mxPoint x="751" y="231.95000000000005" as="targetPoint" />
          </mxGeometry>
        </mxCell>
        <mxCell id="cPcHKRKm8nas2TuGx9sg-11" value="get /shop" style="edgeLabel;resizable=0;html=1;align=center;verticalAlign=middle;" parent="cPcHKRKm8nas2TuGx9sg-10" connectable="0" vertex="1">
          <mxGeometry relative="1" as="geometry" />
        </mxCell>
        <mxCell id="cPcHKRKm8nas2TuGx9sg-12" value="" style="endArrow=classic;html=1;" parent="1" edge="1">
          <mxGeometry relative="1" as="geometry">
            <mxPoint x="750" y="246" as="sourcePoint" />
            <mxPoint x="440" y="246" as="targetPoint" />
          </mxGeometry>
        </mxCell>
        <mxCell id="cPcHKRKm8nas2TuGx9sg-13" value="shop data" style="edgeLabel;resizable=0;html=1;align=center;verticalAlign=middle;" parent="cPcHKRKm8nas2TuGx9sg-12" connectable="0" vertex="1">
          <mxGeometry relative="1" as="geometry" />
        </mxCell>
        <mxCell id="cPcHKRKm8nas2TuGx9sg-15" value="" style="rounded=0;whiteSpace=wrap;html=1;" parent="1" vertex="1">
          <mxGeometry x="435" y="280" width="10" height="50" as="geometry" />
        </mxCell>
        <mxCell id="cPcHKRKm8nas2TuGx9sg-16" value="" style="endArrow=classic;html=1;" parent="1" target="cPcHKRKm8nas2TuGx9sg-3" edge="1">
          <mxGeometry relative="1" as="geometry">
            <mxPoint x="440" y="340" as="sourcePoint" />
            <mxPoint x="280" y="340" as="targetPoint" />
          </mxGeometry>
        </mxCell>
        <mxCell id="cPcHKRKm8nas2TuGx9sg-17" value="302 /&amp;nbsp;" style="edgeLabel;resizable=0;html=1;align=center;verticalAlign=middle;" parent="cPcHKRKm8nas2TuGx9sg-16" connectable="0" vertex="1">
          <mxGeometry relative="1" as="geometry">
            <mxPoint as="offset" />
          </mxGeometry>
        </mxCell>
        <mxCell id="cPcHKRKm8nas2TuGx9sg-18" value="set session cookie" style="edgeLabel;resizable=0;html=1;align=left;verticalAlign=bottom;" parent="cPcHKRKm8nas2TuGx9sg-16" connectable="0" vertex="1">
          <mxGeometry x="-1" relative="1" as="geometry">
            <mxPoint x="-190" y="30" as="offset" />
          </mxGeometry>
        </mxCell>
        <mxCell id="cPcHKRKm8nas2TuGx9sg-22" value="" style="shape=cylinder3;whiteSpace=wrap;html=1;boundedLbl=1;backgroundOutline=1;size=15;" parent="1" vertex="1">
          <mxGeometry x="610" y="280" width="60" height="80" as="geometry" />
        </mxCell>
        <mxCell id="cPcHKRKm8nas2TuGx9sg-23" value="DB" style="text;html=1;strokeColor=none;fillColor=none;align=center;verticalAlign=middle;whiteSpace=wrap;rounded=0;" parent="1" vertex="1">
          <mxGeometry x="620" y="320" width="40" height="20" as="geometry" />
        </mxCell>
        <mxCell id="cPcHKRKm8nas2TuGx9sg-24" value="" style="endArrow=classic;html=1;entryX=0.017;entryY=0.275;entryDx=0;entryDy=0;entryPerimeter=0;" parent="1" target="cPcHKRKm8nas2TuGx9sg-22" edge="1">
          <mxGeometry relative="1" as="geometry">
            <mxPoint x="445" y="299.5" as="sourcePoint" />
            <mxPoint x="545" y="299.5" as="targetPoint" />
          </mxGeometry>
        </mxCell>
        <mxCell id="cPcHKRKm8nas2TuGx9sg-25" value="update or cerate&amp;nbsp;&lt;br&gt;shop record" style="edgeLabel;resizable=0;html=1;align=center;verticalAlign=middle;" parent="cPcHKRKm8nas2TuGx9sg-24" connectable="0" vertex="1">
          <mxGeometry relative="1" as="geometry" />
        </mxCell>
        <mxCell id="cPcHKRKm8nas2TuGx9sg-26" value="" style="endArrow=classic;html=1;exitX=0;exitY=0.5;exitDx=0;exitDy=0;exitPerimeter=0;" parent="1" source="cPcHKRKm8nas2TuGx9sg-22" edge="1">
          <mxGeometry width="50" height="50" relative="1" as="geometry">
            <mxPoint x="603" y="320" as="sourcePoint" />
            <mxPoint x="443" y="319" as="targetPoint" />
          </mxGeometry>
        </mxCell>
        <mxCell id="xb-LKAGMFs9HHAOeBS0U-1" value="" style="endArrow=classic;html=1;entryX=0.54;entryY=0.793;entryDx=0;entryDy=0;entryPerimeter=0;" edge="1" parent="1" source="3nuBFxr9cyL0pnOWT2aG-1" target="3nuBFxr9cyL0pnOWT2aG-5">
          <mxGeometry relative="1" as="geometry">
            <mxPoint x="490" y="260" as="sourcePoint" />
            <mxPoint x="590" y="260" as="targetPoint" />
          </mxGeometry>
        </mxCell>
        <mxCell id="xb-LKAGMFs9HHAOeBS0U-2" value="get documentation version" style="edgeLabel;resizable=0;html=1;align=center;verticalAlign=middle;" connectable="0" vertex="1" parent="xb-LKAGMFs9HHAOeBS0U-1">
          <mxGeometry relative="1" as="geometry" />
        </mxCell>
        <mxCell id="xb-LKAGMFs9HHAOeBS0U-4" value="" style="endArrow=classic;html=1;exitX=0.47;exitY=0.88;exitDx=0;exitDy=0;exitPerimeter=0;entryX=0.5;entryY=0.44;entryDx=0;entryDy=0;entryPerimeter=0;" edge="1" parent="1" source="3nuBFxr9cyL0pnOWT2aG-5" target="3nuBFxr9cyL0pnOWT2aG-1">
          <mxGeometry relative="1" as="geometry">
            <mxPoint x="650" y="270" as="sourcePoint" />
            <mxPoint x="550" y="270" as="targetPoint" />
          </mxGeometry>
        </mxCell>
        <mxCell id="xb-LKAGMFs9HHAOeBS0U-5" value="documentation version" style="edgeLabel;resizable=0;html=1;align=center;verticalAlign=middle;" connectable="0" vertex="1" parent="xb-LKAGMFs9HHAOeBS0U-4">
          <mxGeometry relative="1" as="geometry" />
        </mxCell>
      </root>
    </mxGraphModel>
  </diagram>
</mxfile>
